<?xml version="1.0" encoding="utf-8"?>
<!-- Generator: Adobe Illustrator 17.1.0, SVG Export Plug-In . SVG Version: 6.00 Build 0)  -->
<!DOCTYPE svg PUBLIC "-//W3C//DTD SVG 1.1//EN" "http://www.w3.org/Graphics/SVG/1.1/DTD/svg11.dtd">
<svg version="1.1" id="Layer_1" xmlns="http://www.w3.org/2000/svg" xmlns:xlink="http://www.w3.org/1999/xlink" x="0px" y="0px"
	 viewBox="0 0 144 144" enable-background="new 0 0 144 144" xml:space="preserve">
<g>
	<linearGradient id="SVGID_1_" gradientUnits="userSpaceOnUse" x1="44.805" y1="42.6083" x2="100.7018" y2="98.505">
		<stop  offset="0" style="stop-color:#E6E6E6"/>
		<stop  offset="0.5" style="stop-color:#F7F7F7"/>
		<stop  offset="1" style="stop-color:#C4C4C4"/>
	</linearGradient>
	<path fill="url(#SVGID_1_)" d="M101.545,56.729c0-1.591-1.289-2.88-2.88-2.88h-3.287v-3.287c0-1.591-1.289-2.88-2.88-2.88h-3.036
		v-3.037c0-1.591-1.289-2.88-2.88-2.88h-39.74c-1.591,0-2.88,1.289-2.88,2.88v39.74c0,1.591,1.289,2.88,2.88,2.88h2.912l0.124-0.123
		v3.16c0,1.591,1.289,2.88,2.88,2.88h3.287v3.287c0,1.591,1.289,2.88,2.88,2.88h39.74c1.591,0,2.88-1.289,2.88-2.88V56.729z"/>
	<path d="M108.35,73.004c-0.162-2.029-2.164-3.677-5.93-4.906v-11.37c0-2.001-1.627-3.63-3.629-3.63h-2.537v-2.537
		c0-2.001-1.629-3.63-3.631-3.63h-1.666c0.438-6.088,0-10.631-1.393-12.684c-0.727-1.073-1.602-1.38-2.209-1.45
		c-2.365-0.272-5.193,2.495-8.389,8.216H65.058c-5.067-4.976-8.852-6.991-11.269-5.969c-1.711,0.726-2.401,2.743-2.084,5.969h-4.737
		c-2.002,0-3.63,1.629-3.63,3.63v28.262c-3.471,1.809-5.165,3.746-5.001,5.76c0.168,2.087,2.282,3.55,5.001,4.575v1.143
		c0,2.002,1.628,3.63,3.63,3.63h2.286v2.287c0,2.002,1.628,3.63,3.63,3.63h2.537v2.537c0,2.002,1.628,3.63,3.63,3.63h4.638
		c0.3,4.693,1.539,7.219,3.705,7.467c0.101,0.012,0.202,0.018,0.305,0.018c2.296,0,4.956-2.896,7.63-7.484h10.27
		c4.412,4.389,7.875,6.606,10.326,6.606c0.479,0,0.92-0.085,1.322-0.255c0.613-0.259,1.434-0.851,1.865-2.198
		c0.334-1.043,0.377-2.468,0.158-4.202c1.773-0.237,3.15-1.743,3.15-3.581V79.223C105.768,77.638,108.557,75.545,108.35,73.004z
		 M68.156,44.244c-0.553-0.609-1.089-1.178-1.617-1.729h20.168c1.176,0,2.131,0.956,2.131,2.13v2.287H70.498
		C69.71,45.998,68.926,45.092,68.156,44.244z M88.863,48.432c-0.137,1.457-0.324,3.018-0.559,4.667H75.387
		c-1.223-1.631-2.439-3.193-3.644-4.667H88.863z M84.619,66.724c-1.096-1.787-2.221-3.536-3.354-5.253h5.547
		c-0.43,2.05-0.926,4.191-1.486,6.416C85.092,67.499,84.857,67.112,84.619,66.724z M56.92,60.471v-3.742
		c0-1.174,0.955-2.13,2.13-2.13h14.795c1.396,1.873,2.795,3.835,4.182,5.872H56.92z M80.609,60.471
		c-1.355-2.027-2.73-3.991-4.104-5.872H88.08c-0.291,1.854-0.643,3.815-1.061,5.872H80.609z M72.721,53.099H59.05
		c-2.002,0-3.63,1.629-3.63,3.63v26.806c-1.646-0.138-3.198-0.325-4.667-0.55V50.562c0-1.174,0.955-2.13,2.13-2.13h16.089
		C70.206,49.896,71.46,51.451,72.721,53.099z M56.92,61.471h21.791c1.387,2.065,2.756,4.194,4.09,6.369
		c0.611,0.994,1.197,1.973,1.768,2.942c-0.006,0.023-0.012,0.046-0.018,0.07c-1.166,4.297-2.404,8.248-3.666,11.83
		c-2.25,0.301-4.565,0.553-6.926,0.744c-6.063,0.491-11.89,0.552-17.039,0.213V61.471z M85.951,73.168
		c1.568,2.756,2.969,5.391,4.207,7.88c-2.236,0.5-4.613,0.939-7.094,1.317C84.102,79.363,85.074,76.266,85.951,73.168z
		 M86.742,70.271c0.799-3.023,1.492-5.971,2.078-8.8h12.1v16.246c-0.967,0.428-2.08,0.861-3.357,1.297
		c-1.619,0.551-3.391,1.062-5.275,1.534C90.67,77.268,88.811,73.813,86.742,70.271z M100.92,56.729v3.742H89.023
		c0.406-2.028,0.754-3.991,1.045-5.872h8.723C99.965,54.599,100.92,55.554,100.92,56.729z M92.623,48.432
		c1.176,0,2.131,0.956,2.131,2.13v2.537h-4.465c0.229-1.63,0.41-3.186,0.545-4.667H92.623z M87.133,34.753
		c0.107,0.012,0.43,0.049,0.805,0.6c0.732,1.082,1.164,3.359,1.217,6.627c-0.646-0.594-1.502-0.965-2.447-0.965h-5.475
		C84.025,36.249,86.051,34.629,87.133,34.753z M54.622,37.01c1.006-0.427,3.434,0.521,7.316,4.004h-8.094
		C53.598,38.813,53.876,37.326,54.622,37.01z M46.967,42.515h16.566c0.944,0.922,1.953,1.963,3.042,3.163
		c0.363,0.4,0.734,0.834,1.103,1.254H52.883c-2.002,0-3.63,1.629-3.63,3.63v32.18c-1.761-0.322-3.225-0.689-4.416-1.079V44.645
		C44.837,43.47,45.792,42.515,46.967,42.515z M40.331,78.506c-0.078-0.957,1.011-2.137,3.007-3.317v5.914
		C41.281,80.221,40.392,79.279,40.331,78.506z M46.967,86.515c-1.175,0-2.13-0.955-2.13-2.13v-0.632
		c1.436,0.435,2.96,0.766,4.416,1.021v1.741H46.967z M52.883,92.432c-1.175,0-2.13-0.955-2.13-2.13v-5.288
		c1.47,0.218,3.031,0.393,4.667,0.525v6.893H52.883z M56.92,96.469v-10.82c2.123,0.136,4.353,0.208,6.668,0.208
		c3.373,0,6.916-0.146,10.533-0.438c2.037-0.165,4.039-0.379,6-0.626c-2.113,5.704-4.26,10.358-6.213,13.806H59.05
		C57.875,98.599,56.92,97.644,56.92,96.469z M67.618,105.61c-0.793-0.091-1.703-1.602-1.967-5.512h7.372
		C70.744,103.815,68.802,105.747,67.618,105.61z M82.314,84.494c3.078-0.442,6.014-0.979,8.742-1.604
		c3.113,6.504,5.037,11.902,5.822,15.708h-9.764c-0.031-0.031-0.06-0.06-0.094-0.091l-0.09,0.091H76.174
		C78.293,94.689,80.396,89.791,82.314,84.494z M97.08,103.601c-0.223,0.698-0.555,0.839-0.666,0.885
		c-1.025,0.44-3.568-0.558-7.732-4.387h8.459C97.352,101.624,97.334,102.811,97.08,103.601z M100.92,96.469
		c0,1.091-0.826,1.981-1.885,2.105c-0.791-4.186-2.834-9.809-5.859-16.188c1.789-0.457,3.477-0.951,5.031-1.479
		c0.889-0.303,1.809-0.643,2.713-1.018V96.469z M102.42,77v-6.79c2.428,0.877,3.854,1.934,3.936,2.954
		C106.432,74.104,105.348,75.482,102.42,77z"/>
</g>
</svg>
