<?xml version="1.0" encoding="UTF-8" standalone="no"?>
<!-- Generator: Adobe Illustrator 17.1.0, SVG Export Plug-In . SVG Version: 6.00 Build 0)  -->

<svg
   xmlns:osb="http://www.openswatchbook.org/uri/2009/osb"
   xmlns:dc="http://purl.org/dc/elements/1.1/"
   xmlns:cc="http://creativecommons.org/ns#"
   xmlns:rdf="http://www.w3.org/1999/02/22-rdf-syntax-ns#"
   xmlns:svg="http://www.w3.org/2000/svg"
   xmlns="http://www.w3.org/2000/svg"
   xmlns:xlink="http://www.w3.org/1999/xlink"
   xmlns:sodipodi="http://sodipodi.sourceforge.net/DTD/sodipodi-0.dtd"
   xmlns:inkscape="http://www.inkscape.org/namespaces/inkscape"
   version="1.1"
   id="Layer_1"
   x="0px"
   y="0px"
   viewBox="0 0 100 100"
   enable-background="new 0 0 144 144"
   xml:space="preserve"
   inkscape:version="0.91 r13725"
   sodipodi:docname="app_shiny1.svg"
   width="100"
   height="100"><metadata
     id="metadata3508"><rdf:RDF><cc:Work
         rdf:about=""><dc:format>image/svg+xml</dc:format><dc:type
           rdf:resource="http://purl.org/dc/dcmitype/StillImage" /><dc:title></dc:title></cc:Work></rdf:RDF></metadata><defs
     id="defs3506"><linearGradient
       inkscape:collect="always"
       id="linearGradient5778"><stop
         style="stop-color:#000000;stop-opacity:1;"
         offset="0"
         id="stop5780" /><stop
         style="stop-color:#000000;stop-opacity:0;"
         offset="1"
         id="stop5782" /></linearGradient><linearGradient
       inkscape:collect="always"
       id="linearGradient5760"
       osb:paint="gradient"><stop
         style="stop-color:#000000;stop-opacity:1;"
         offset="0"
         id="stop5762" /><stop
         style="stop-color:#000000;stop-opacity:0;"
         offset="1"
         id="stop5764" /></linearGradient><radialGradient
       inkscape:collect="always"
       xlink:href="#linearGradient5778"
       id="radialGradient5784"
       cx="74.640579"
       cy="71.207825"
       fx="74.640579"
       fy="71.207825"
       r="43.101463"
       gradientTransform="matrix(1,0,0,0.93260916,0,-39.201245)"
       gradientUnits="userSpaceOnUse" /></defs><sodipodi:namedview
     pagecolor="#ffffff"
     bordercolor="#666666"
     borderopacity="1"
     objecttolerance="10"
     gridtolerance="10"
     guidetolerance="10"
     inkscape:pageopacity="0"
     inkscape:pageshadow="2"
     inkscape:window-width="1920"
     inkscape:window-height="1014"
     id="namedview3504"
     showgrid="false"
     inkscape:zoom="5.6805556"
     inkscape:cx="44.361858"
     inkscape:cy="50.875306"
     inkscape:window-x="0"
     inkscape:window-y="635"
     inkscape:window-maximized="1"
     inkscape:current-layer="Layer_1"
     fit-margin-bottom="22"
     fit-margin-left="-22" /><g
     id="g3491"
     transform="translate(-23.589242,-20.762836)"><linearGradient
       id="SVGID_1_"
       gradientUnits="userSpaceOnUse"
       x1="44.805"
       y1="42.608299"
       x2="100.7018"
       y2="98.504997"><stop
         offset="0"
         style="stop-color:#E6E6E6"
         id="stop3494" /><stop
         offset="0.5"
         style="stop-color:#F7F7F7"
         id="stop3496" /><stop
         offset="1"
         style="stop-color:#C4C4C4"
         id="stop3498" /></linearGradient><path
       d="m 101.545,56.729 c 0,-1.591 -1.289,-2.88 -2.88,-2.88 l -3.287,0 0,-3.287 c 0,-1.591 -1.289,-2.88 -2.88,-2.88 l -3.036,0 0,-3.037 c 0,-1.591 -1.289,-2.88 -2.88,-2.88 l -39.74,0 c -1.591,0 -2.88,1.289 -2.88,2.88 l 0,39.74 c 0,1.591 1.289,2.88 2.88,2.88 l 2.912,0 0.124,-0.123 0,3.16 c 0,1.591 1.289,2.88 2.88,2.88 l 3.287,0 0,3.287 c 0,1.591 1.289,2.88 2.88,2.88 l 39.74,0 c 1.591,0 2.88,-1.289 2.88,-2.88 l 0,-39.74 z"
       id="path3500"
       inkscape:connector-curvature="0"
       style="fill:url(#SVGID_1_)" /><path
       d="m 108.35,73.004 c -0.162,-2.029 -2.164,-3.677 -5.93,-4.906 l 0,-11.37 c 0,-2.001 -1.627,-3.63 -3.629,-3.63 l -2.537,0 0,-2.537 c 0,-2.001 -1.629,-3.63 -3.631,-3.63 l -1.666,0 c 0.438,-6.088 0,-10.631 -1.393,-12.684 -0.727,-1.073 -1.602,-1.38 -2.209,-1.45 -2.365,-0.272 -5.193,2.495 -8.389,8.216 l -13.908,0 c -5.067,-4.976 -8.852,-6.991 -11.269,-5.969 -1.711,0.726 -2.401,2.743 -2.084,5.969 l -4.737,0 c -2.002,0 -3.63,1.629 -3.63,3.63 l 0,28.262 c -3.471,1.809 -5.165,3.746 -5.001,5.76 0.168,2.087 2.282,3.55 5.001,4.575 l 0,1.143 c 0,2.002 1.628,3.63 3.63,3.63 l 2.286,0 0,2.287 c 0,2.002 1.628,3.63 3.63,3.63 l 2.537,0 0,2.537 c 0,2.002 1.628,3.63 3.63,3.63 l 4.638,0 c 0.3,4.693 1.539,7.219 3.705,7.467 0.101,0.012 0.202,0.018 0.305,0.018 2.296,0 4.956,-2.896 7.63,-7.484 l 10.27,0 c 4.412,4.389 7.875,6.606 10.326,6.606 0.479,0 0.92,-0.085 1.322,-0.255 0.613,-0.259 1.434,-0.851 1.865,-2.198 0.334,-1.043 0.377,-2.468 0.158,-4.202 1.773,-0.237 3.15,-1.743 3.15,-3.581 l 0,-17.245 c 3.348,-1.585 6.137,-3.678 5.93,-6.219 z M 68.156,44.244 c -0.553,-0.609 -1.089,-1.178 -1.617,-1.729 l 20.168,0 c 1.176,0 2.131,0.956 2.131,2.13 l 0,2.287 -18.34,0 c -0.788,-0.934 -1.572,-1.84 -2.342,-2.688 z m 20.707,4.188 c -0.137,1.457 -0.324,3.018 -0.559,4.667 l -12.917,0 c -1.223,-1.631 -2.439,-3.193 -3.644,-4.667 l 17.12,0 z m -4.244,18.292 c -1.096,-1.787 -2.221,-3.536 -3.354,-5.253 l 5.547,0 c -0.43,2.05 -0.926,4.191 -1.486,6.416 -0.234,-0.388 -0.469,-0.775 -0.707,-1.163 z m -27.699,-6.253 0,-3.742 c 0,-1.174 0.955,-2.13 2.13,-2.13 l 14.795,0 c 1.396,1.873 2.795,3.835 4.182,5.872 l -21.107,0 z m 23.689,0 c -1.355,-2.027 -2.73,-3.991 -4.104,-5.872 l 11.575,0 c -0.291,1.854 -0.643,3.815 -1.061,5.872 l -6.41,0 z m -7.888,-7.372 -13.671,0 c -2.002,0 -3.63,1.629 -3.63,3.63 l 0,26.806 c -1.646,-0.138 -3.198,-0.325 -4.667,-0.55 l 0,-32.423 c 0,-1.174 0.955,-2.13 2.13,-2.13 l 16.089,0 c 1.234,1.464 2.488,3.019 3.749,4.667 z m -15.801,8.372 21.791,0 c 1.387,2.065 2.756,4.194 4.09,6.369 0.611,0.994 1.197,1.973 1.768,2.942 -0.006,0.023 -0.012,0.046 -0.018,0.07 -1.166,4.297 -2.404,8.248 -3.666,11.83 -2.25,0.301 -4.565,0.553 -6.926,0.744 -6.063,0.491 -11.89,0.552 -17.039,0.213 l 0,-22.168 z m 29.031,11.697 c 1.568,2.756 2.969,5.391 4.207,7.88 -2.236,0.5 -4.613,0.939 -7.094,1.317 1.038,-3.002 2.01,-6.099 2.887,-9.197 z m 0.791,-2.897 c 0.799,-3.023 1.492,-5.971 2.078,-8.8 l 12.1,0 0,16.246 c -0.967,0.428 -2.08,0.861 -3.357,1.297 -1.619,0.551 -3.391,1.062 -5.275,1.534 -1.618,-3.28 -3.477,-6.735 -5.546,-10.277 z m 14.178,-13.542 0,3.742 -11.897,0 c 0.406,-2.028 0.754,-3.991 1.045,-5.872 l 8.723,0 c 1.174,0 2.129,0.955 2.129,2.13 z m -8.297,-8.297 c 1.176,0 2.131,0.956 2.131,2.13 l 0,2.537 -4.465,0 c 0.229,-1.63 0.41,-3.186 0.545,-4.667 l 1.789,0 z m -5.49,-13.679 c 0.107,0.012 0.43,0.049 0.805,0.6 0.732,1.082 1.164,3.359 1.217,6.627 -0.646,-0.594 -1.502,-0.965 -2.447,-0.965 l -5.475,0 c 2.792,-4.766 4.818,-6.386 5.9,-6.262 z M 54.622,37.01 c 1.006,-0.427 3.434,0.521 7.316,4.004 l -8.094,0 c -0.246,-2.201 0.032,-3.688 0.778,-4.004 z m -7.655,5.505 16.566,0 c 0.944,0.922 1.953,1.963 3.042,3.163 0.363,0.4 0.734,0.834 1.103,1.254 l -14.795,0 c -2.002,0 -3.63,1.629 -3.63,3.63 l 0,32.18 C 47.492,82.42 46.028,82.053 44.837,81.663 l 0,-37.018 c 0,-1.175 0.955,-2.13 2.13,-2.13 z m -6.636,35.991 c -0.078,-0.957 1.011,-2.137 3.007,-3.317 l 0,5.914 c -2.057,-0.882 -2.946,-1.824 -3.007,-2.597 z m 6.636,8.009 c -1.175,0 -2.13,-0.955 -2.13,-2.13 l 0,-0.632 c 1.436,0.435 2.96,0.766 4.416,1.021 l 0,1.741 -2.286,0 z m 5.916,5.917 c -1.175,0 -2.13,-0.955 -2.13,-2.13 l 0,-5.288 c 1.47,0.218 3.031,0.393 4.667,0.525 l 0,6.893 -2.537,0 z m 4.037,4.037 0,-10.82 c 2.123,0.136 4.353,0.208 6.668,0.208 3.373,0 6.916,-0.146 10.533,-0.438 2.037,-0.165 4.039,-0.379 6,-0.626 -2.113,5.704 -4.26,10.358 -6.213,13.806 l -14.858,0 c -1.175,0 -2.13,-0.955 -2.13,-2.13 z m 10.698,9.141 c -0.793,-0.091 -1.703,-1.602 -1.967,-5.512 l 7.372,0 c -2.279,3.717 -4.221,5.649 -5.405,5.512 z M 82.314,84.494 c 3.078,-0.442 6.014,-0.979 8.742,-1.604 3.113,6.504 5.037,11.902 5.822,15.708 l -9.764,0 c -0.031,-0.031 -0.06,-0.06 -0.094,-0.091 l -0.09,0.091 -10.756,0 c 2.119,-3.909 4.222,-8.807 6.14,-14.104 z m 14.766,19.107 c -0.223,0.698 -0.555,0.839 -0.666,0.885 -1.025,0.44 -3.568,-0.558 -7.732,-4.387 l 8.459,0 c 0.211,1.525 0.193,2.712 -0.061,3.502 z m 3.84,-7.132 c 0,1.091 -0.826,1.981 -1.885,2.105 -0.791,-4.186 -2.834,-9.809 -5.859,-16.188 1.789,-0.457 3.477,-0.951 5.031,-1.479 0.889,-0.303 1.809,-0.643 2.713,-1.018 l 0,16.58 z m 1.5,-19.469 0,-6.79 c 2.428,0.877 3.854,1.934 3.936,2.954 0.076,0.94 -1.008,2.318 -3.936,3.836 z"
       id="path3502"
       inkscape:connector-curvature="0" /></g><rect
     style="opacity:0;fill:url(#radialGradient5784);fill-opacity:1;fill-rule:evenodd;stroke:#000000;stroke-width:1px;stroke-linecap:butt;stroke-linejoin:miter;stroke-opacity:1"
     id="rect3512"
     width="70.415649"
     height="74.992653"
     x="38.200489"
     y="-11.432762"
     ry="1.2322738"
     rx="0" /><rect
     style="opacity:0;fill:#000000;fill-opacity:1"
     id="rect5786"
     width="66.542786"
     height="74.992668"
     x="30.630806"
     y="-21.466993"
     rx="0.176039"
     ry="1.23227" /><rect
     style="opacity:0;fill:#000000;fill-opacity:1"
     id="rect5788"
     width="80.449875"
     height="81.858177"
     x="32.919315"
     y="-14.601467"
     rx="0.176039"
     ry="1.23227" /></svg>