<?xml version="1.0" encoding="UTF-8" standalone="no"?>
<!-- Generator: Adobe Illustrator 17.1.0, SVG Export Plug-In . SVG Version: 6.00 Build 0)  -->

<svg
   xmlns:dc="http://purl.org/dc/elements/1.1/"
   xmlns:cc="http://creativecommons.org/ns#"
   xmlns:rdf="http://www.w3.org/1999/02/22-rdf-syntax-ns#"
   xmlns:svg="http://www.w3.org/2000/svg"
   xmlns="http://www.w3.org/2000/svg"
   xmlns:sodipodi="http://sodipodi.sourceforge.net/DTD/sodipodi-0.dtd"
   xmlns:inkscape="http://www.inkscape.org/namespaces/inkscape"
   version="1.1"
   id="Layer_1"
   x="0px"
   y="0px"
   viewBox="0 0 100 100"
   enable-background="new 0 0 144 144"
   xml:space="preserve"
   inkscape:version="0.91 r13725"
   sodipodi:docname="box_shiny1.svg"
   width="100"
   height="100"><metadata
     id="metadata5899"><rdf:RDF><cc:Work
         rdf:about=""><dc:format>image/svg+xml</dc:format><dc:type
           rdf:resource="http://purl.org/dc/dcmitype/StillImage" /><dc:title></dc:title></cc:Work></rdf:RDF></metadata><defs
     id="defs5897" /><sodipodi:namedview
     pagecolor="#ffffff"
     bordercolor="#666666"
     borderopacity="1"
     objecttolerance="10"
     gridtolerance="10"
     guidetolerance="10"
     inkscape:pageopacity="0"
     inkscape:pageshadow="2"
     inkscape:window-width="1920"
     inkscape:window-height="1014"
     id="namedview5895"
     showgrid="false"
     inkscape:zoom="6.5555555"
     inkscape:cx="23.635593"
     inkscape:cy="52.751816"
     inkscape:window-x="0"
     inkscape:window-y="635"
     inkscape:window-maximized="1"
     inkscape:current-layer="Layer_1" /><linearGradient
     id="SVGID_1_"
     gradientUnits="userSpaceOnUse"
     x1="48.6147"
     y1="75.315804"
     x2="101.291"
     y2="75.315804"
     gradientTransform="translate(-24.864407,-26.152542)"><stop
       offset="0"
       style="stop-color:#E6E6E6"
       id="stop5879" /><stop
       offset="0.5"
       style="stop-color:#F7F7F7"
       id="stop5881" /><stop
       offset="1"
       style="stop-color:#C4C4C4"
       id="stop5883" /></linearGradient><path
     d="m 76.420593,33.175458 c 0,-0.021 -0.006,-0.039 -0.008,-0.06 -0.008,-0.081 -0.029,-0.157 -0.062,-0.229 -0.006,-0.013 -0.004,-0.027 -0.01,-0.039 -0.004,-0.008 -0.012,-0.012 -0.016,-0.02 -0.047,-0.083 -0.102,-0.159 -0.174,-0.223 -0.014,-0.013 -0.033,-0.021 -0.049,-0.033 -0.039,-0.03 -0.076,-0.062 -0.123,-0.084 l -25.529,-12.77 c -0.229,-0.112 -0.496,-0.112 -0.723,0 l -25.53,12.768 c -0.045,0.022 -0.083,0.054 -0.123,0.084 -0.016,0.013 -0.034,0.021 -0.049,0.034 -0.071,0.063 -0.128,0.138 -0.172,0.22 -0.005,0.009 -0.012,0.014 -0.018,0.022 -0.007,0.013 -0.006,0.028 -0.011,0.043 -0.031,0.07 -0.05,0.143 -0.06,0.22 -0.003,0.023 -0.009,0.045 -0.009,0.068 -0.002,0.01 -0.005,0.019 -0.005,0.03 l 0,31.913 c 0,0.305 0.173,0.586 0.446,0.721 l 25.531,12.768 c 0.008,0.004 0.016,0.002 0.021,0.004 0.102,0.047 0.211,0.076 0.328,0.078 0.004,0 0.008,0.002 0.012,0.002 0.004,0 0.006,-0.002 0.012,-0.002 0.117,-0.002 0.227,-0.031 0.326,-0.078 0.008,-0.002 0.016,0 0.023,-0.004 l 25.529,-12.768 c 0.273,-0.135 0.447,-0.416 0.447,-0.721 l 0,-31.912 c 0.002,-0.011 -0.004,-0.022 -0.004,-0.032 z"
     id="path5885"
     inkscape:connector-curvature="0"
     style="fill:url(#SVGID_1_)" /><g
     id="g5887"
     transform="translate(-24.864407,-26.152542)"><path
       d="m 101.34,59.295 c 0,-0.021 -0.006,-0.039 -0.008,-0.06 -0.009,-0.081 -0.03,-0.157 -0.062,-0.229 -0.006,-0.013 -0.005,-0.027 -0.011,-0.039 -0.004,-0.008 -0.012,-0.012 -0.015,-0.02 -0.047,-0.083 -0.103,-0.159 -0.174,-0.223 -0.015,-0.013 -0.033,-0.021 -0.049,-0.033 -0.039,-0.03 -0.077,-0.062 -0.123,-0.084 L 75.368,45.839 c -0.228,-0.112 -0.495,-0.112 -0.722,0 L 49.115,58.605 c -0.045,0.022 -0.083,0.054 -0.123,0.084 -0.016,0.013 -0.034,0.021 -0.049,0.034 -0.071,0.063 -0.128,0.138 -0.172,0.22 -0.005,0.009 -0.012,0.014 -0.018,0.022 -0.007,0.013 -0.006,0.028 -0.011,0.043 -0.031,0.07 -0.05,0.143 -0.06,0.22 -0.003,0.023 -0.009,0.045 -0.009,0.068 -0.002,0.01 -0.005,0.019 -0.005,0.03 l 0,31.914 c 0,0.305 0.173,0.586 0.446,0.722 l 25.532,12.767 c 0.007,0.004 0.015,0.002 0.021,0.005 0.101,0.047 0.21,0.076 0.327,0.078 0.005,0 0.008,0.002 0.012,0.002 0.004,0 0.007,-0.002 0.012,-0.002 0.117,-0.002 0.228,-0.031 0.326,-0.078 0.008,-0.003 0.016,-10e-4 0.023,-0.005 l 25.53,-12.767 c 0.273,-0.136 0.446,-0.417 0.446,-0.722 l 0,-31.913 c 0.002,-0.011 -0.003,-0.021 -0.003,-0.032 z M 75.007,71.188 64.043,65.707 87.77,53.845 98.735,59.326 75.007,71.188 Z m 0,-23.725 11.86,5.93 L 63.14,65.256 51.28,59.327 75.007,47.463 Z M 50.283,60.633 74.2,72.59 l 0,30.109 -23.917,-11.958 0,-30.108 z m 25.53,42.066 0,-30.109 23.917,-11.957 0,30.108 -23.917,11.958 z"
       id="path5889"
       inkscape:connector-curvature="0"
       style="fill:#231f20" /><path
       d="m 98.277,83.316 c -0.224,0 -0.404,0.181 -0.404,0.403 l 0,5.726 -8.637,4.318 c -0.199,0.1 -0.28,0.342 -0.181,0.542 0.071,0.141 0.214,0.223 0.362,0.223 l 0.18,-0.043 8.859,-4.43 c 0.138,-0.068 0.224,-0.208 0.224,-0.36 l 0,-5.975 c 10e-4,-0.223 -0.181,-0.404 -0.403,-0.404 z"
       id="path5891"
       inkscape:connector-curvature="0"
       style="fill:#231f20" /><path
       d="m 72.483,86.425 c -0.223,0 -0.404,0.182 -0.404,0.404 l 0,11.646 c 0,0.224 0.181,0.403 0.404,0.403 0.223,0 0.403,-0.18 0.403,-0.403 l 0,-11.646 c 0.001,-0.223 -0.18,-0.404 -0.403,-0.404 z"
       id="path5893"
       inkscape:connector-curvature="0"
       style="fill:#231f20" /></g></svg>