<?xml version="1.0" encoding="UTF-8" standalone="no"?>
<!-- Generator: Adobe Illustrator 17.1.0, SVG Export Plug-In . SVG Version: 6.00 Build 0)  -->

<svg
   xmlns:dc="http://purl.org/dc/elements/1.1/"
   xmlns:cc="http://creativecommons.org/ns#"
   xmlns:rdf="http://www.w3.org/1999/02/22-rdf-syntax-ns#"
   xmlns:svg="http://www.w3.org/2000/svg"
   xmlns="http://www.w3.org/2000/svg"
   xmlns:sodipodi="http://sodipodi.sourceforge.net/DTD/sodipodi-0.dtd"
   xmlns:inkscape="http://www.inkscape.org/namespaces/inkscape"
   version="1.1"
   id="Layer_1"
   x="0px"
   y="0px"
   viewBox="0 0 150 150"
   enable-background="new 0 0 216 216"
   xml:space="preserve"
   inkscape:version="0.91 r13725"
   sodipodi:docname="list_shiny1.svg"
   width="150"
   height="150"><metadata
     id="metadata5993"><rdf:RDF><cc:Work
         rdf:about=""><dc:format>image/svg+xml</dc:format><dc:type
           rdf:resource="http://purl.org/dc/dcmitype/StillImage" /><dc:title></dc:title></cc:Work></rdf:RDF></metadata><defs
     id="defs5991" /><sodipodi:namedview
     pagecolor="#ffffff"
     bordercolor="#666666"
     borderopacity="1"
     objecttolerance="10"
     gridtolerance="10"
     guidetolerance="10"
     inkscape:pageopacity="0"
     inkscape:pageshadow="2"
     inkscape:window-width="1920"
     inkscape:window-height="1014"
     id="namedview5989"
     showgrid="false"
     inkscape:zoom="3.0903185"
     inkscape:cx="164.5796"
     inkscape:cy="112.47639"
     inkscape:window-x="0"
     inkscape:window-y="635"
     inkscape:window-maximized="1"
     inkscape:current-layer="Layer_1" /><g
     id="g5976"
     transform="translate(-34.624263,-34.288059)"><linearGradient
       id="SVGID_1_"
       gradientUnits="userSpaceOnUse"
       x1="77.412102"
       y1="76.843498"
       x2="141.7267"
       y2="141.1581"><stop
         offset="0"
         style="stop-color:#E6E6E6"
         id="stop5979" /><stop
         offset="0.5031"
         style="stop-color:#F7F7F7"
         id="stop5981" /><stop
         offset="1"
         style="stop-color:#C4C4C4"
         id="stop5983" /></linearGradient><path
       d="m 133.031,70.133 -46.923,0 c -2.647,0 -4.802,2.154 -4.802,4.802 l 0,68.134 c 0,2.646 2.154,4.8 4.802,4.8 l 46.923,0 c 2.646,0 4.801,-2.153 4.801,-4.8 l 0,-68.134 c 0,-2.648 -2.154,-4.802 -4.801,-4.802 z"
       id="path5985"
       inkscape:connector-curvature="0"
       style="fill:url(#SVGID_1_)" /><path
       d="m 133.03,70.133 -46.924,0 c -2.646,0 -4.8,2.154 -4.8,4.802 l 0,68.134 c 0,2.646 2.153,4.8 4.8,4.8 l 46.924,0 c 2.647,0 4.801,-2.153 4.801,-4.8 l 0,-68.134 c 0,-2.648 -2.153,-4.802 -4.801,-4.802 z m 2.801,72.935 c 0,1.544 -1.256,2.8 -2.801,2.8 l -46.924,0 c -1.545,0 -2.8,-1.256 -2.8,-2.8 l 0,-68.133 c 0,-1.545 1.255,-2.802 2.8,-2.802 l 46.924,0 c 1.545,0 2.801,1.257 2.801,2.802 l 0,68.133 z m -5.817,-63.98 -7.393,0 0,-3.441 c 0,-1.022 -0.831,-1.853 -1.852,-1.853 l -22.397,0 c -1.023,0 -1.854,0.831 -1.854,1.853 l 0,3.441 -7.393,0 c -1.599,0 -2.897,1.212 -2.897,2.702 l 0,58.179 c 0,1.49 1.299,2.702 2.897,2.702 l 40.889,0 c 1.597,0 2.897,-1.212 2.897,-2.702 l 0,-58.179 c 0,-1.49 -1.301,-2.702 -2.897,-2.702 z m -31.996,0 0,-3.441 c 0,-0.194 0.159,-0.353 0.354,-0.353 l 22.396,0 c 0.194,0 0.352,0.158 0.352,0.353 l 0,3.441 0,1.5 0,0.681 c 0,0.194 -0.158,0.353 -0.352,0.353 l -22.396,0 c -0.195,0 -0.354,-0.158 -0.354,-0.353 l 0,-0.681 0,-1.5 z m 33.393,60.881 c 0,0.663 -0.628,1.202 -1.397,1.202 l -40.889,0 c -0.771,0 -1.397,-0.539 -1.397,-1.202 l 0,-58.179 c 0,-0.663 0.626,-1.202 1.397,-1.202 l 7.393,0 0,0.681 c 0,1.021 0.831,1.853 1.854,1.853 l 22.396,0 c 1.021,0 1.852,-0.831 1.852,-1.853 l 0,-0.681 7.393,0 c 0.77,0 1.397,0.539 1.397,1.202 l 0,58.179 z m -2.446,-46.737 c 0,0.414 -0.335,0.75 -0.749,0.75 l -20.527,0 c -0.414,0 -0.75,-0.336 -0.75,-0.75 0,-0.414 0.336,-0.75 0.75,-0.75 l 20.527,0 c 0.414,0 0.749,0.336 0.749,0.75 z m 0,5.033 c 0,0.414 -0.335,0.75 -0.749,0.75 l -20.527,0 c -0.414,0 -0.75,-0.336 -0.75,-0.75 0,-0.414 0.336,-0.75 0.75,-0.75 l 20.527,0 c 0.414,0 0.749,0.336 0.749,0.75 z m 0,11.785 c 0,0.414 -0.335,0.75 -0.749,0.75 l -20.527,0 c -0.414,0 -0.75,-0.336 -0.75,-0.75 0,-0.414 0.336,-0.75 0.75,-0.75 l 20.527,0 c 0.414,0 0.749,0.336 0.749,0.75 z m 0,5.032 c 0,0.414 -0.335,0.75 -0.749,0.75 l -20.527,0 c -0.414,0 -0.75,-0.336 -0.75,-0.75 0,-0.414 0.336,-0.75 0.75,-0.75 l 20.527,0 c 0.414,0 0.749,0.336 0.749,0.75 z m 0,12.109 c 0,0.414 -0.335,0.75 -0.749,0.75 l -20.527,0 c -0.414,0 -0.75,-0.336 -0.75,-0.75 0,-0.414 0.336,-0.75 0.75,-0.75 l 20.527,0 c 0.414,0 0.749,0.336 0.749,0.75 z m 0,5.033 c 0,0.414 -0.335,0.75 -0.749,0.75 l -20.527,0 c -0.414,0 -0.75,-0.336 -0.75,-0.75 0,-0.414 0.336,-0.75 0.75,-0.75 l 20.527,0 c 0.414,0 0.749,0.336 0.749,0.75 z m -37.236,-31.209 10.066,0 c 0.414,0 0.75,-0.336 0.75,-0.75 l 0,-10.065 c 0,-0.05 -0.02,-0.094 -0.028,-0.141 l 1.376,-2.314 c 0.283,-0.475 0.128,-1.089 -0.347,-1.371 -0.475,-0.283 -1.089,-0.125 -1.372,0.348 l -1.623,2.729 -8.822,0 c -0.413,0 -0.749,0.336 -0.749,0.75 l 0,10.064 c 0,0.414 0.336,0.75 0.749,0.75 z m 0.751,-10.065 7.179,0 -2.849,4.786 -0.931,-1.745 c -0.261,-0.487 -0.867,-0.672 -1.354,-0.411 -0.486,0.26 -0.671,0.865 -0.411,1.353 l 1.766,3.31 c 0.016,0.026 0.037,0.047 0.053,0.071 0.02,0.03 0.04,0.059 0.062,0.085 0.069,0.084 0.148,0.162 0.246,0.223 0.004,0.002 0.006,0.007 0.011,0.01 0,10e-4 0.003,10e-4 0.003,10e-4 0.033,0.02 0.068,0.028 0.104,0.044 0.126,0.058 0.263,0.095 0.403,0.096 l 0.001,0 0.002,0 0,0 c 0.082,0 0.164,-0.011 0.244,-0.031 0.029,-0.008 0.058,-0.023 0.088,-0.034 0.045,-0.017 0.093,-0.029 0.138,-0.053 0,0 0.002,-0.003 0.005,-0.004 0.106,-0.058 0.193,-0.136 0.267,-0.222 0.02,-0.022 0.039,-0.046 0.057,-0.069 0.021,-0.026 0.043,-0.047 0.059,-0.075 l 3.424,-5.752 0,6.983 -8.567,0 0,-8.566 z m 9.316,33.028 -10.067,0 c -0.413,0 -0.749,0.336 -0.749,0.75 l 0,10.065 c 0,0.414 0.336,0.75 0.749,0.75 l 10.066,0 c 0.414,0 0.75,-0.336 0.75,-0.75 l 0,-10.065 c 0.001,-0.415 -0.335,-0.75 -0.749,-0.75 z m -3.617,5.782 2.867,-2.868 0,5.736 -2.867,-2.868 z m 1.453,-4.282 -2.867,2.868 -2.868,-2.868 5.735,0 z m -7.152,1.412 2.869,2.87 -2.869,2.87 0,-5.74 z m 1.416,7.152 2.868,-2.868 2.867,2.868 -5.735,0 z m 9.634,-30.865 c -0.482,-0.273 -1.091,-0.105 -1.364,0.374 l -1.843,3.233 -8.594,0 c -0.413,0 -0.749,0.336 -0.749,0.75 l 0,10.063 c 0,0.414 0.336,0.75 0.749,0.75 l 10.066,0 c 0.414,0 0.75,-0.336 0.75,-0.75 l 0,-10.063 c 0,-0.146 -0.053,-0.274 -0.126,-0.39 l 1.484,-2.604 c 0.275,-0.478 0.106,-1.09 -0.373,-1.363 z m -2.484,13.671 -8.566,0 0,-8.563 6.987,0 -2.639,4.631 -0.934,-1.899 c -0.243,-0.494 -0.838,-0.698 -1.34,-0.456 -0.494,0.243 -0.697,0.843 -0.455,1.339 l 1.766,3.593 c 0.019,0.041 0.05,0.072 0.074,0.109 0.018,0.027 0.035,0.056 0.055,0.081 0.073,0.088 0.159,0.167 0.264,0.229 0.004,0.002 0.006,0.007 0.01,0.009 0.05,0.028 0.104,0.044 0.156,0.063 0.025,0.009 0.05,0.023 0.075,0.031 0.086,0.023 0.175,0.036 0.263,0.036 l 0.002,0 0,0 0.001,-0.001 c 0.136,0 0.27,-0.035 0.402,-0.093 0.013,-0.005 0.024,-0.003 0.037,-0.009 0.007,-0.004 0.012,-0.011 0.019,-0.015 0.105,-0.055 0.196,-0.126 0.271,-0.21 0.019,-0.02 0.035,-0.044 0.053,-0.066 0.027,-0.037 0.061,-0.069 0.084,-0.111 l 3.414,-5.988 0,7.29 z"
       id="path5987"
       inkscape:connector-curvature="0" /></g></svg>